<?xml version="1.0" standalone="no"?><!DOCTYPE svg PUBLIC "-//W3C//DTD SVG 1.1//EN" "http://www.w3.org/Graphics/SVG/1.1/DTD/svg11.dtd"><svg t="1719943469791" class="icon" viewBox="0 0 1024 1024" version="1.1" xmlns="http://www.w3.org/2000/svg" p-id="1478" xmlns:xlink="http://www.w3.org/1999/xlink" width="200" height="200"><path d="M785.0595 552.051627a235.99978 235.99978 0 1 0 238.482372 235.974187 237.50981 237.50981 0 0 0-238.482372-235.974187z m0 420.760914a184.786727 184.786727 0 1 1 186.706257-184.786727A185.964039 185.964039 0 0 1 785.0595 972.812541z m-265.662912-278.664527a38.697719 38.697719 0 0 0 8.804243-0.691031l-1.100531-50.061335a92.137426 92.137426 0 0 0-12.361771-0.998155h-0.921374a18.836985 18.836985 0 0 0-6.321651 0.998155l-1.254093-141.149418v-0.179156l210.431644-1.228499h17.454924l-0.255938 2.559373a66.262166 66.262166 0 0 0 0 18.273922l51.187459-1.10053a68.744758 68.744758 0 0 0 0-18.606641l124.359932 1.151717c-0.358312 6.731151-0.716624 13.871801-0.818999 25.59373a0.563062 0.563062 0 0 1 0 0.20475v1.228499l50.573209-0.998156a175.931297 175.931297 0 0 0 3.199217-41.948122V476.294188a469.030687 469.030687 0 0 0-37.801939-185.298602 474.047058 474.047058 0 0 0-103.065949-151.233348 483.721488 483.721488 0 0 0-680.153362 0 474.021465 474.021465 0 0 0-103.065949 151.233348 472.920934 472.920934 0 0 0 0 370.546016 474.251808 474.251808 0 0 0 103.065949 151.284536 481.827552 481.827552 0 0 0 340.063884 139.383451h6.935901c9.623242 0 16.738299 0 25.209824-0.588656l10.237491-2.226655-1.126124-51.622552s-4.93959-0.563062-9.520867-0.563062a24.186074 24.186074 0 0 0-5.937745 0.563062l-0.972562-194.384376V693.840889c0.20475 0 10.263086 0.307125 13.155177 0.307125z m390.329969-252.047049c0.255937 3.096841 0.716624 6.142495 0.921374 9.239337l-124.641463 1.177311a505.962439 505.962439 0 0 0-55.666361-206.925303 532.73348 532.73348 0 0 0 74.221815-47.220431 425.035066 425.035066 0 0 1 105.164635 243.729086z m-152.20591-291.768516c3.762278 3.148029 7.678119 6.219276 11.286835 9.495273a624.307845 624.307845 0 0 1-62.346325 40.361312 528.843233 528.843233 0 0 0-123.771276-136.516954 447.02008 447.02008 0 0 1 174.830766 86.73715z m-250.025143-76.141346a486.536798 486.536798 0 0 1 141.533324 131.75652c3.531935 5.118746 7.422182 9.623242 10.77496 14.793176a520.704427 520.704427 0 0 1-146.268164 34.321191c-2.021905 0-4.018216 0.435093-6.04012 0.563062V74.191103z m159.986403 199.016841s11.952272-4.402121 17.045424-6.347245a490.862139 490.862139 0 0 1 49.626241 176.596734c0.20475 2.559373 0.691031 5.118746 0.844593 7.831681l-226.402131 1.228499h-1.10053l-1.177312-146.370539a534.422666 534.422666 0 0 0 161.163715-32.862349zM368.675115 66.564172a497.618883 497.618883 0 0 0-117.270469 131.372613c-18.273923-9.776805-35.831221-20.782108-52.671896-31.454693-1.945123-1.382061-4.018216-2.559373-5.937745-4.069403A431.075187 431.075187 0 0 1 368.675115 66.640953zM235.408565 452.492019h-14.20452a477.451024 477.451024 0 0 1 50.470835-187.371693c5.63062 2.252248 11.312428 4.350934 17.01983 6.424026l5.374683 1.996311a499.077726 499.077726 0 0 0 162.136277 31.454693l1.254092 146.268164z m222.00001 189.393599a537.46832 537.46832 0 0 0-164.030213 32.93913 144.24626 144.24626 0 0 0-24.97948 11.286835 468.365251 468.365251 0 0 1-47.399587-184.274853l235.206375-1.228499zM156.989378 199.114097a408.552705 408.552705 0 0 0 68.28407 42.767122 497.286165 497.286165 0 0 0-54.975331 209.30552l-110.053037 1.228499h-7.038276a424.190473 424.190473 0 0 1 103.782574-253.147579zM53.232398 501.913511l115.581283-1.177311a496.723103 496.723103 0 0 0 53.388519 206.439022 411.649546 411.649546 0 0 0-66.543696 44.789027 423.806567 423.806567 0 0 1-102.426106-249.897175z m146.805633 295.607576c-3.250404-2.789717-6.577588-5.528246-9.776805-8.44593a480.266335 480.266335 0 0 1 55.922299-36.061565l3.045654 4.965183a480.419897 480.419897 0 0 0 88.52871 104.192073c7.985244 7.396588 16.098456 14.639613 24.544387 21.54992a451.575764 451.575764 0 0 1-162.264245-86.046118z m257.421731 90.704178a495.238667 495.238667 0 0 1-157.22228-146.063415c-2.559373-3.736685-5.118746-7.422182-7.524557-11.235647a483.491145 483.491145 0 0 1 163.518338-37.392439l1.228499 128.94121V888.353233z m0-633.67515a519.859834 519.859834 0 0 1-147.675819-29.739913c-3.967028-1.484436-8.010837-2.712935-11.926678-4.299747a466.983189 466.983189 0 0 1 158.373998-151.003004l1.228499 176.596733v8.497119z m266.353944 520.192553a33.527786 33.527786 0 0 1 33.655754-33.271848h49.395898v26.975791l87.504961-50.010148-87.504961-49.984554v26.975791h-49.395898a79.87803 79.87803 0 0 0-80.236342 79.340562v13.129583h46.580588v-13.129583z m124.795025 38.876875a33.502192 33.502192 0 0 1-33.630161 33.271849h-49.421491v-26.975791l-87.504962 50.010147 87.504962 49.984554V892.960105h49.421491a79.903624 79.903624 0 0 0 80.236342-79.340562v-13.103989h-46.606181v13.103989z" fill="#2c2c2c" p-id="1479"></path></svg>