<?xml version="1.0" standalone="no"?><!DOCTYPE svg PUBLIC "-//W3C//DTD SVG 1.1//EN" "http://www.w3.org/Graphics/SVG/1.1/DTD/svg11.dtd"><svg t="1721642236270" class="icon" viewBox="0 0 1024 1024" version="1.1" xmlns="http://www.w3.org/2000/svg" p-id="4422" width="200" height="200" xmlns:xlink="http://www.w3.org/1999/xlink"><path d="M512.000213 733.353497c-122.06857 0-221.353283-99.284713-221.353283-221.353284S389.931643 290.64693 512.000213 290.64693 733.353497 389.931643 733.353497 512.000213 634.026117 733.353497 512.000213 733.353497z m0-357.373767A136.148482 136.148482 0 0 0 375.97973 512.000213 136.148482 136.148482 0 0 0 512.000213 648.020697 136.148482 136.148482 0 0 0 648.020697 512.000213 136.148482 136.148482 0 0 0 512.000213 375.97973zM554.666613 171.735673A42.154403 42.154403 0 0 1 512.000213 213.335413c-23.551853 0-42.6664-18.645217-42.6664-41.59974V41.603153A42.154403 42.154403 0 0 1 512.000213 0.003413c23.551853 0 42.6664 18.645217 42.6664 41.59974v130.13252zM554.666613 982.397273A42.154403 42.154403 0 0 1 512.000213 1023.997013c-23.594519 0-42.6664-18.687883-42.6664-41.59974v-130.175186A42.111737 42.111737 0 0 1 512.000213 810.665013c23.551853 0 42.6664 18.60255 42.6664 41.59974v130.13252zM171.735673 469.333813c22.954523 0 41.59974 19.114547 41.59974 42.6664 0 23.594519-18.645217 42.6664-41.59974 42.6664H41.603153A42.154403 42.154403 0 0 1 0.003413 512.000213c0-23.551853 18.645217-42.6664 41.59974-42.6664h130.13252zM982.397273 469.333813c22.954523 0 41.59974 19.114547 41.59974 42.6664 0 23.594519-18.687883 42.6664-41.59974 42.6664h-130.175186A42.111737 42.111737 0 0 1 810.665013 512.000213c0-23.551853 18.60255-42.6664 41.59974-42.6664h130.13252zM241.239239 722.430898a42.06907 42.06907 0 0 1 59.562294 0.767995 42.111737 42.111737 0 0 1 0.767996 59.562295l-92.031425 92.074091a42.154403 42.154403 0 0 1-59.562295-0.853328 42.154403 42.154403 0 0 1-0.767995-59.562294l92.031425-91.988759zM814.462323 149.207814a42.154403 42.154403 0 0 1 59.562294 0.767995 42.154403 42.154403 0 0 1 0.767996 59.562295l-92.031425 92.031425a42.06907 42.06907 0 0 1-59.562295-0.767996 42.111737 42.111737 0 0 1-0.810661-59.562294l92.074091-92.031425zM241.239239 301.526862a42.19707 42.19707 0 0 0 59.604961-0.725329 42.111737 42.111737 0 0 0 0.767995-59.562294L209.538104 149.122481a42.154403 42.154403 0 0 0-59.562295 0.853328 42.111737 42.111737 0 0 0-0.767995 59.562295l92.031425 91.988758zM814.462323 874.792613a42.111737 42.111737 0 0 0 59.562294-0.810662 42.154403 42.154403 0 0 0 0.767996-59.562294l-92.031425-92.031425a42.06907 42.06907 0 0 0-59.562295 0.767995 42.111737 42.111737 0 0 0-0.810661 59.562294l92.074091 92.074092z" fill="#2c2c2c" p-id="4423"></path></svg>